<?xml version="1.0" standalone="no"?>
<!DOCTYPE svg PUBLIC "-//W3C//DTD SVG 20010904//EN"
 "http://www.w3.org/TR/2001/REC-SVG-20010904/DTD/svg10.dtd">
<svg version="1.0" xmlns="http://www.w3.org/2000/svg"
 width="2336.000000pt" height="2336.000000pt" viewBox="0 0 2336.000000 2336.000000"
 preserveAspectRatio="xMidYMid meet">
<metadata>
Created by potrace 1.14, written by Peter Selinger 2001-2017
</metadata>
<g transform="translate(0.000000,2336.000000) scale(0.100000,-0.100000)"
fill="#000000" stroke="none">
<path d="M11273 16852 c-23 -15 -54 -41 -69 -57 -36 -39 -104 -144 -104 -162
0 -7 -4 -13 -10 -13 -5 0 -10 -6 -10 -12 1 -7 11 -1 23 15 99 123 166 186 214
201 22 7 22 6 19 -66 -6 -120 -63 -221 -168 -300 -27 -21 -44 -39 -37 -40 28
-3 35 -4 74 -17 66 -22 167 -78 218 -122 130 -112 246 -335 274 -529 l8 -55 5
45 c7 58 4 361 -5 420 -3 25 -8 59 -10 75 -35 269 -167 575 -270 625 -57 28
-102 25 -152 -8z"/>
<path d="M13230 16449 c-90 -8 -179 -18 -211 -25 -13 -2 -39 -7 -58 -10 -57
-10 -67 -12 -148 -34 -95 -26 -241 -79 -268 -97 -11 -7 -25 -13 -32 -13 -20 0
-202 -108 -283 -169 -87 -64 -240 -215 -289 -286 -19 -27 -31 -46 -25 -43 5 3
65 39 134 80 203 122 431 236 630 313 25 9 56 21 68 26 89 35 298 92 377 104
23 3 52 8 65 11 14 2 70 7 125 9 83 4 93 2 60 -6 -271 -70 -451 -126 -560
-174 -16 -7 -73 -31 -125 -54 -119 -52 -320 -160 -431 -234 -131 -86 -255
-187 -233 -188 54 -3 199 1 274 7 47 4 93 7 103 8 9 0 17 3 17 6 0 3 12 5 28
6 35 0 81 8 167 28 365 85 687 260 940 511 91 90 182 201 173 210 -15 15 -369
25 -498 14z"/>
<path d="M10487 16084 c-1 -1 -33 -5 -70 -8 -316 -29 -677 -189 -990 -440
-109 -87 -203 -173 -197 -179 29 -28 874 -29 1135 -2 166 17 180 19 400 55
258 43 642 141 630 161 -13 20 -297 99 -450 124 -42 7 -49 8 -155 21 -79 9
-355 10 -430 1 -117 -14 -148 -19 -227 -38 -46 -10 -93 -21 -105 -23 -32 -6
-191 -63 -256 -92 -30 -13 -56 -23 -58 -22 -6 6 135 95 206 130 110 53 292
109 410 124 19 3 42 7 50 9 12 4 238 17 295 18 19 0 209 -14 235 -18 14 -2 48
-6 75 -10 28 -3 57 -8 65 -10 8 -2 34 -7 57 -10 49 -7 284 -65 356 -88 169
-54 -170 144 -353 206 -85 29 -215 62 -275 71 -22 3 -60 8 -85 12 -43 6 -257
13 -263 8z"/>
<path d="M11660 15409 c-225 -20 -453 -132 -576 -283 -101 -124 -147 -255
-148 -421 -1 -85 2 -107 22 -147 27 -54 101 -132 168 -178 120 -81 386 -182
589 -224 17 -3 41 -8 55 -11 14 -3 46 -10 73 -15 43 -9 122 -19 281 -36 33 -3
67 -7 76 -9 9 -2 41 -6 71 -10 112 -13 234 -37 237 -46 2 -5 11 -9 21 -9 9 0
21 -4 27 -9 5 -6 57 -39 116 -75 199 -120 371 -257 537 -425 108 -111 148
-161 235 -291 79 -119 187 -344 156 -325 -6 3 -10 10 -10 16 0 15 -121 128
-190 177 -59 41 -292 161 -322 166 -7 1 -17 4 -23 8 -28 17 -365 112 -465 132
-14 2 -74 14 -135 26 -60 12 -121 23 -135 25 -14 2 -38 6 -55 9 -16 3 -46 8
-65 11 -170 25 -251 37 -285 40 -22 3 -53 7 -70 9 -50 7 -267 35 -310 40 -22
3 -40 5 -40 6 0 1 -10 3 -22 6 -12 2 -53 16 -90 31 -164 64 -360 187 -535 333
-91 75 -290 268 -348 336 -14 16 -50 58 -80 94 -131 156 -194 207 -290 236
-74 22 -144 12 -205 -30 -102 -70 -193 -197 -255 -356 -11 -30 -36 -91 -54
-135 -34 -82 -48 -116 -51 -125 -39 -132 -44 -149 -61 -225 -12 -52 -14 -65
-30 -185 -5 -37 -1 -58 23 -111 128 -282 382 -457 748 -515 17 -3 41 -7 55
-10 119 -22 512 -21 640 0 14 3 48 7 75 11 53 6 155 22 191 29 12 2 38 7 57
10 20 3 78 15 129 27 51 11 100 22 109 24 9 2 90 24 180 49 144 40 289 71 384
82 216 25 400 24 573 -2 65 -10 235 -62 307 -94 263 -118 484 -365 580 -644
28 -83 32 -98 41 -156 3 -19 7 -42 10 -50 14 -38 4 -169 -16 -214 -11 -26 -20
-50 -20 -52 0 -9 46 43 130 149 8 11 20 24 26 31 22 24 184 273 184 283 0 6 3
13 8 15 13 6 82 146 126 256 38 94 78 230 102 342 11 53 15 620 5 660 -5 19
-17 68 -26 108 -19 88 -68 236 -102 312 -47 105 -57 125 -97 195 -114 200
-294 414 -475 565 -29 25 -62 53 -74 63 -11 9 -23 17 -26 17 -3 0 -20 13 -38
28 -38 32 -284 185 -306 189 -4 1 -42 18 -85 39 -42 20 -86 40 -97 44 -11 4
-33 13 -50 20 -31 13 -230 81 -230 79 0 -1 -20 4 -45 11 -63 17 -225 49 -280
56 -25 3 -56 7 -70 9 -83 15 -352 23 -460 14z"/>
<path d="M9629 12848 c-34 -14 -59 -57 -59 -102 0 -40 37 -144 73 -208 14 -24
41 -74 62 -113 59 -109 167 -263 244 -348 235 -258 469 -431 779 -575 104 -48
366 -142 437 -156 17 -3 73 -15 125 -26 52 -10 120 -22 150 -25 30 -4 66 -9
80 -12 43 -9 451 -11 533 -3 100 11 168 20 187 25 8 2 31 6 50 9 47 8 78 14
102 22 11 3 30 7 41 9 58 8 288 85 397 133 137 60 158 73 221 139 74 77 129
162 156 243 19 59 25 219 9 255 -5 11 -10 27 -10 35 -5 43 -20 101 -27 106 -5
3 -9 12 -9 20 0 23 -68 125 -109 163 -66 61 -189 129 -266 146 -11 2 -54 12
-95 21 -82 19 -363 25 -500 12 -63 -7 -235 -33 -345 -53 -63 -12 -323 -77
-385 -96 -36 -11 -72 -22 -80 -25 -8 -2 -46 -13 -85 -24 -38 -11 -78 -19 -87
-16 -10 2 -20 1 -22 -3 -11 -17 -195 -2 -311 24 -38 9 -81 19 -95 21 -14 3
-34 9 -45 14 -11 5 -40 16 -65 24 -96 31 -288 118 -362 163 -73 44 -385 175
-449 188 -9 2 -32 8 -50 13 -48 12 -159 13 -190 0z"/>
<path d="M7690 10652 c-14 -1 -69 -14 -123 -27 -54 -14 -100 -25 -102 -25 -3
0 -12 -14 -21 -32 -16 -30 -21 -150 -10 -243 24 -211 25 -262 8 -350 -12 -64
-14 -123 -8 -275 1 -30 -2 -63 -6 -73 -5 -10 -10 -86 -12 -170 -2 -84 -8 -161
-13 -172 -6 -11 -11 -55 -11 -98 0 -75 1 -78 29 -93 26 -13 31 -13 53 1 16 11
42 15 82 13 99 -4 131 7 154 53 12 22 18 44 15 49 -3 5 -10 35 -15 67 -8 50
-7 61 11 90 18 29 21 45 16 102 -4 50 -1 80 13 120 11 28 16 59 13 67 -3 9 2
14 16 14 12 0 34 9 50 21 38 28 90 38 191 39 70 0 99 5 160 29 76 30 112 39
161 40 19 1 28 8 33 25 3 14 23 32 51 47 35 19 43 28 39 43 -3 10 -7 80 -8
157 -1 112 -5 141 -18 156 -12 13 -15 30 -11 67 l5 50 -61 57 c-52 49 -127
105 -190 144 -9 6 -34 23 -55 40 -37 28 -44 29 -139 29 -72 0 -102 -4 -105
-13 -7 -20 -44 -51 -62 -51 -22 0 -44 26 -63 71 -14 35 -19 38 -67 31z m214
-157 c20 3 40 -13 99 -78 142 -157 137 -145 163 -342 3 -22 7 -50 10 -62 7
-34 -89 -133 -129 -133 -16 0 -61 -16 -100 -36 -39 -20 -85 -37 -101 -39 -17
-1 -48 -6 -70 -10 l-38 -8 6 89 c9 113 9 147 6 211 -2 37 1 58 12 70 13 15 16
48 16 177 0 110 4 161 12 166 6 4 29 4 51 0 21 -4 50 -6 63 -5z"/>
<path d="M10612 10565 c-35 -8 -75 -16 -90 -19 -66 -11 -131 -29 -187 -51 -33
-13 -76 -26 -97 -30 -27 -5 -38 -13 -42 -30 -8 -30 -63 -70 -92 -67 -36 3
-120 -115 -134 -187 -6 -31 -20 -96 -30 -145 l-19 -89 34 -90 c18 -49 35 -90
37 -92 2 -1 45 -22 95 -45 l93 -43 39 27 c54 38 103 37 177 -3 78 -42 110 -88
129 -184 2 -9 -10 -39 -26 -66 -28 -44 -35 -49 -87 -61 -31 -7 -63 -18 -71
-24 -8 -6 -16 -10 -18 -8 -2 2 -27 -3 -56 -11 -48 -14 -103 -25 -160 -31 -155
-19 -212 -41 -221 -88 -8 -40 37 -131 62 -124 19 6 101 19 117 18 6 0 31 -5
56 -13 42 -11 53 -10 105 9 104 37 147 44 274 47 69 2 134 3 146 4 14 1 34 20
59 59 21 31 58 82 83 113 37 46 50 75 77 168 l33 112 -33 67 c-18 37 -48 86
-68 109 -19 24 -37 48 -39 54 -3 8 -38 13 -99 16 -92 3 -169 19 -169 34 0 4
-30 17 -67 29 -38 13 -81 30 -96 39 -45 25 -83 119 -78 192 1 8 26 47 56 85
47 58 68 75 137 111 52 26 103 44 138 48 30 4 74 11 97 17 39 9 44 15 62 62
19 51 19 51 -2 74 -23 25 -37 26 -125 7z"/>
<path d="M11909 10576 c-2 -2 -20 -6 -39 -9 -89 -12 -248 -50 -280 -67 -19
-10 -61 -24 -92 -31 -44 -9 -58 -16 -58 -30 0 -24 -64 -71 -95 -71 -19 0 -36
-15 -71 -62 -52 -69 -59 -84 -67 -143 -4 -23 -13 -71 -21 -107 -23 -99 -22
-114 13 -206 28 -73 38 -88 64 -100 18 -7 60 -27 94 -43 l62 -31 42 28 c53 36
96 36 168 1 68 -33 115 -88 131 -154 11 -47 10 -51 -18 -97 -30 -48 -31 -48
-144 -81 -141 -42 -147 -43 -253 -58 -16 -2 -50 -7 -75 -10 -95 -13 -131 -34
-143 -83 -8 -32 40 -124 62 -118 18 6 101 19 116 18 6 0 30 -5 55 -12 43 -12
52 -11 143 19 89 30 108 33 248 35 l152 3 58 83 c32 45 69 95 83 109 16 17 37
68 60 144 l36 118 -35 71 c-20 39 -50 88 -69 108 -18 20 -35 43 -38 50 -4 12
-22 14 -158 20 -35 2 -70 11 -95 25 -22 12 -69 32 -105 44 -83 28 -94 37 -125
102 -37 81 -32 137 17 189 14 14 33 38 43 53 26 41 180 116 253 124 31 3 75
11 96 17 35 10 41 17 56 61 17 49 17 51 -3 73 -18 19 -56 30 -68 18z"/>
<path d="M12837 10543 c-2 -1 -51 -4 -110 -6 -100 -3 -108 -5 -133 -30 -15
-15 -24 -27 -21 -27 3 0 -1 -23 -9 -51 -11 -38 -13 -58 -5 -82 6 -18 12 -49
13 -71 2 -32 -3 -42 -26 -61 -27 -22 -28 -25 -21 -86 14 -134 13 -223 -1 -246
-11 -18 -11 -28 -2 -48 9 -19 8 -38 -2 -82 -7 -32 -14 -123 -15 -203 -2 -87
-9 -168 -18 -202 -8 -31 -13 -59 -11 -61 2 -2 5 -23 6 -47 1 -36 -3 -47 -26
-66 l-26 -23 40 -27 c40 -26 58 -28 140 -11 8 2 59 12 113 22 96 18 99 20 116
54 17 33 17 42 4 101 -14 66 -12 126 9 250 6 36 12 155 13 265 2 110 5 211 7
225 3 14 8 45 13 70 4 25 18 90 32 145 24 98 35 276 18 293 -6 6 -93 11 -98 5z"/>
<path d="M9188 10525 c-2 -2 -207 -17 -256 -18 -8 0 -31 -24 -53 -53 -21 -29
-43 -55 -48 -58 -10 -6 -50 -105 -57 -139 -2 -10 -5 -26 -8 -35 -3 -9 -7 -28
-10 -42 -13 -72 -59 -186 -100 -248 -58 -87 -86 -150 -146 -325 -26 -76 -54
-146 -62 -155 -8 -9 -19 -38 -26 -65 -7 -26 -35 -101 -62 -167 -28 -66 -50
-126 -50 -134 0 -18 27 -27 60 -21 14 3 54 8 90 11 36 3 68 9 72 12 3 4 15 43
26 87 17 68 61 189 118 321 7 16 22 38 32 48 18 16 19 20 5 46 -9 20 -12 43
-8 72 8 53 20 75 57 106 42 36 88 106 91 141 1 18 15 44 35 65 20 22 32 45 32
63 1 83 46 162 86 149 15 -5 24 -29 42 -113 29 -139 92 -310 122 -333 19 -14
23 -26 22 -61 -3 -65 -49 -89 -100 -53 -18 12 -37 14 -85 9 -97 -10 -190 -36
-205 -56 -7 -11 -20 -19 -28 -19 -23 0 -16 -33 17 -79 30 -40 33 -42 75 -38
24 3 55 14 70 26 29 22 88 28 100 10 6 -11 59 -8 110 7 16 4 26 -3 47 -34 31
-48 97 -220 97 -255 0 -41 34 -55 141 -57 52 -1 101 -2 109 -2 34 -3 104 13
112 24 14 21 0 146 -28 248 -14 52 -37 138 -50 190 -18 65 -35 107 -56 133
-26 33 -29 42 -20 62 12 27 5 39 -50 80 -33 24 -38 33 -38 69 0 65 -26 194
-58 286 -17 47 -33 101 -37 120 -11 56 -109 192 -127 175z"/>
<path d="M15088 10485 c-6 -6 -35 -9 -163 -20 -106 -9 -115 -12 -115 -40 0
-14 -8 -29 -19 -35 -16 -8 -18 -15 -11 -38 12 -37 19 -271 9 -278 -5 -3 -9
-14 -9 -25 0 -11 -9 -37 -20 -58 -16 -33 -18 -51 -13 -118 5 -68 -2 -151 -23
-285 -2 -15 4 -49 14 -76 17 -44 18 -52 4 -77 -20 -39 -21 -297 -1 -321 11
-14 29 -15 119 -10 58 4 117 9 131 11 13 3 41 6 61 7 52 2 65 26 73 134 4 49
9 96 10 105 2 8 6 55 10 105 4 49 9 96 10 104 1 8 -4 28 -12 43 -14 28 -13 93
3 282 3 33 6 79 8 101 4 54 11 64 46 64 40 0 47 -13 51 -98 2 -33 10 -51 35
-77 17 -19 39 -54 47 -78 11 -33 222 -329 340 -477 7 -9 18 -23 26 -33 17 -22
25 -83 11 -92 -17 -11 -11 -44 10 -55 26 -14 139 -4 202 17 l47 17 -5 60 c-3
34 -7 88 -9 121 -1 33 -6 87 -10 120 -4 33 -9 69 -10 80 -1 11 4 38 12 60 20
55 18 315 -2 315 -6 0 -17 12 -24 26 -10 23 -8 32 13 69 23 38 23 43 9 57 -32
32 -23 225 11 250 11 8 -10 115 -25 123 -5 4 -37 8 -70 11 -34 3 -64 5 -68 6
-29 3 -61 -6 -85 -25 l-29 -24 -2 -149 c-1 -90 3 -167 10 -195 7 -26 10 -66 8
-90 -9 -75 -4 -131 20 -235 15 -67 15 -140 0 -155 -7 -7 -30 14 -72 68 -34 43
-67 85 -74 93 -63 78 -173 236 -222 318 -34 57 -67 102 -75 102 -9 0 -30 13
-48 30 -28 25 -31 32 -21 48 10 16 9 23 -8 41 -23 25 -33 63 -28 106 5 45 -51
95 -77 70z"/>
<path d="M13787 10465 c-1 -2 -28 -5 -60 -8 -69 -6 -93 -20 -172 -101 -145
-147 -150 -155 -190 -272 -38 -110 -95 -234 -143 -308 -26 -40 -26 -44 -24
-209 1 -93 5 -175 9 -182 7 -11 115 -135 151 -171 6 -7 36 -19 65 -28 28 -8
102 -30 162 -49 89 -27 117 -32 147 -25 21 4 64 9 95 11 33 2 75 12 98 24 22
11 58 24 80 27 21 4 71 22 110 41 84 39 131 55 139 48 14 -15 34 23 40 75 5
44 16 72 46 117 54 80 76 140 61 159 -15 18 -8 57 24 121 20 43 23 57 15 81
-5 16 -11 98 -12 183 -2 112 -6 155 -15 158 -31 11 -57 42 -58 70 -1 32 -43
88 -87 117 -26 17 -50 13 -127 -21 -62 -28 -171 1 -171 46 0 26 -77 91 -109
92 -14 0 -36 2 -49 3 -12 2 -23 2 -25 1z m290 -227 c13 -12 23 -29 23 -38 0
-8 7 -26 16 -38 8 -12 17 -45 20 -74 2 -29 9 -75 16 -103 20 -89 9 -252 -26
-370 -38 -127 -44 -141 -71 -155 -12 -7 -46 -43 -75 -80 -28 -38 -61 -79 -72
-92 -11 -13 -31 -37 -44 -53 -20 -27 -28 -30 -64 -27 -32 3 -46 11 -67 38 -14
19 -48 51 -75 71 -51 37 -113 121 -128 172 -7 27 12 169 26 192 4 7 8 30 9 53
3 55 14 96 35 126 9 14 45 81 79 150 40 81 79 144 111 180 l50 55 77 2 c41 1
78 5 81 8 13 13 58 3 79 -17z"/>
<path d="M110 7525 l0 -565 223 2 222 3 2 215 c1 118 2 220 2 226 1 7 51 10
149 9 81 0 155 1 165 3 15 4 17 17 17 107 0 90 -2 103 -17 107 -10 2 -84 3
-165 3 -142 -1 -148 0 -149 20 0 11 -1 113 -1 228 l-1 207 -223 0 -224 0 0
-565z"/>
<path d="M704 8075 c-7 -17 1 -121 12 -150 14 -39 56 -85 95 -106 52 -26 129
-40 250 -44 86 -2 99 -1 100 14 1 22 1 262 0 284 -1 16 -19 17 -226 17 -191 0
-227 -2 -231 -15z"/>
<path d="M1370 7523 l0 -568 158 2 c86 1 187 2 223 2 l66 1 0 565 0 565 -223
0 -224 0 0 -567z"/>
<path d="M1955 7531 c0 -307 3 -562 6 -566 6 -5 235 -8 432 -6 l58 1 -2 77
c-4 170 -67 286 -187 347 l-45 23 54 30 c65 37 93 68 128 142 23 49 26 69 26
161 0 93 -3 112 -26 161 -59 126 -170 182 -371 188 l-73 2 0 -560z"/>
<path d="M2658 8078 c-2 -7 -4 -197 -3 -423 1 -441 5 -484 53 -561 40 -65 118
-109 224 -128 46 -8 168 -10 175 -2 4 3 7 258 7 566 l1 560 -226 0 c-173 0
-228 -3 -231 -12z"/>
<path d="M3250 7525 l0 -565 48 -1 c161 -2 405 1 409 5 4 4 8 1048 4 1114 -1
9 -54 12 -231 12 l-230 0 0 -565z"/>
<path d="M3952 7525 l0 -565 26 0 c67 -1 284 -1 349 -1 l72 1 0 565 0 565
-224 0 -223 0 0 -565z"/>
<path d="M4620 7854 l0 -235 88 2 c95 2 169 23 208 60 47 44 74 149 75 289 2
136 26 120 -186 120 l-185 0 0 -236z"/>
<path d="M5089 8083 c-1 -5 -2 -259 -3 -566 l-1 -557 50 -1 c56 0 374 0 390 1
8 0 11 428 6 1058 l-1 72 -220 0 c-121 0 -220 -3 -221 -7z"/>
<path d="M5625 7968 c6 -181 22 -237 86 -292 51 -43 97 -56 200 -56 l84 0 -1
228 c-1 125 -2 230 -3 235 0 4 -84 7 -186 7 l-184 0 4 -122z"/>
<path d="M6431 8073 c-146 -30 -221 -119 -237 -279 -3 -33 -3 -33 136 -194 26
-30 78 -91 116 -135 38 -44 73 -85 79 -91 5 -6 28 -32 50 -59 22 -26 47 -55
55 -64 9 -9 40 -45 70 -81 30 -36 60 -70 65 -76 6 -6 34 -39 64 -74 l55 -62
70 6 c86 7 103 10 147 29 86 36 139 112 146 212 l5 60 -157 190 c-86 105 -166
201 -178 215 -12 14 -51 61 -87 105 -35 44 -108 133 -162 197 -111 132 -104
129 -237 101z"/>
<path d="M6750 8084 c0 -4 17 -25 37 -48 78 -88 189 -210 213 -236 14 -15 59
-64 100 -111 121 -135 143 -159 149 -159 5 0 6 169 2 498 l-1 62 -250 0 c-137
0 -250 -3 -250 -6z"/>
<path d="M8580 8078 c-122 -19 -227 -97 -255 -190 -32 -109 -6 -195 78 -258
l46 -34 -39 -26 c-110 -73 -156 -201 -123 -343 17 -75 34 -108 84 -157 61 -60
129 -90 234 -104 40 -5 114 -9 148 -7 16 1 17 35 17 567 l0 565 -67 -2 c-38
-2 -93 -7 -123 -11z"/>
<path d="M8897 8083 c-6 -11 -1 -883 6 -908 29 -109 86 -166 192 -193 61 -16
183 -26 280 -23 l30 1 -1 174 c-2 240 -24 307 -114 348 -54 25 -106 35 -205
38 l-50 2 50 14 c126 36 217 100 256 181 17 36 21 56 16 102 -2 32 -12 71 -20
88 -40 76 -143 144 -257 168 -69 14 -176 19 -183 8z"/>
<path d="M10445 7718 c3 -340 5 -380 23 -450 38 -141 94 -218 197 -269 52 -25
81 -32 150 -37 l86 -5 -1 437 c-1 476 -2 486 -61 571 -49 74 -170 119 -326
124 l-70 2 2 -373z"/>
<path d="M11328 8079 c-155 -24 -244 -98 -274 -229 -10 -47 -12 -880 -1 -887
10 -6 93 -5 122 1 90 19 137 43 196 100 21 22 53 68 70 104 51 106 58 177 59
570 l0 353 -62 -3 c-35 -1 -84 -5 -110 -9z"/>
<path d="M11720 7525 l0 -565 225 0 225 0 0 228 0 228 165 0 165 -1 0 110 0
110 -166 0 -167 0 0 228 1 227 -224 0 -224 0 0 -565z"/>
<path d="M12311 8028 c2 -74 21 -133 52 -166 53 -57 164 -87 317 -87 l85 0 3
158 3 157 -231 0 -231 0 2 -62z"/>
<path d="M13317 8078 c-135 -29 -243 -148 -298 -328 -30 -97 -32 -269 -5 -375
65 -247 206 -400 381 -412 l71 -5 0 566 0 567 -55 -2 c-31 -2 -73 -6 -94 -11z"/>
<path d="M13632 7965 c4 -121 5 -125 34 -162 17 -21 52 -49 80 -63 43 -22 64
-25 176 -28 l126 -4 1 191 0 191 -210 0 -210 0 3 -125z"/>
<path d="M14269 8048 c-1 -52 0 -1058 0 -1075 1 -10 52 -13 221 -13 169 0 220
3 221 13 0 6 1 109 2 227 l2 215 165 0 165 1 1 107 c0 70 -3 107 -10 108 -6 0
-81 2 -166 2 l-155 2 0 225 -1 225 -222 3 -222 2 -1 -42z"/>
<path d="M14859 8078 c-19 -218 79 -297 369 -302 l92 -2 0 158 0 158 -230 0
c-177 0 -230 -3 -231 -12z"/>
<path d="M15520 7855 l0 -235 78 0 c221 0 292 89 292 366 l0 104 -185 0 -185
0 0 -235z"/>
<path d="M15989 8078 c-1 -7 -2 -262 -3 -565 l-1 -553 37 -1 c21 0 112 0 203
0 91 0 174 0 185 0 20 1 20 8 20 566 l0 565 -220 0 c-169 0 -220 -3 -221 -12z"/>
<path d="M16523 7963 c8 -190 36 -263 116 -310 40 -23 60 -27 151 -31 l105 -4
0 236 0 236 -188 0 -189 0 5 -127z"/>
<path d="M17388 8085 c-2 -2 -23 -6 -48 -9 -69 -9 -150 -55 -187 -104 -64 -84
-66 -109 -67 -584 l-1 -428 45 -1 c66 0 339 0 380 0 l36 1 -2 558 c-1 306 -2
561 -3 565 -1 7 -146 9 -153 2z"/>
<path d="M17699 8078 c-3 -75 -1 -1109 3 -1114 3 -2 106 -5 229 -6 l224 -1 0
434 c-1 488 -3 508 -71 587 -61 72 -158 107 -306 111 -58 2 -78 -1 -79 -11z"/>
<path d="M18350 7525 l0 -565 223 0 222 0 -1 558 c-1 306 -2 560 -3 565 0 4
-100 7 -221 7 l-220 0 0 -565z"/>
<path d="M18934 7525 l0 -565 45 -1 c25 -1 48 -1 51 -1 3 0 31 2 63 6 234 24
363 161 344 364 -8 78 -37 128 -102 174 -44 31 -44 31 -22 47 95 65 123 216
63 344 -25 52 -114 147 -138 147 -6 0 -24 6 -41 14 -45 20 -113 33 -194 35
l-70 2 1 -566z"/>
<path d="M19644 7528 l1 -563 223 -3 222 -2 0 565 0 565 -223 0 -224 0 1 -562z"/>
<path d="M20918 8083 c-2 -5 -3 -258 -3 -563 l1 -555 224 0 223 0 1 225 1 225
165 0 165 0 0 109 0 110 -165 0 -165 1 -2 215 c-1 118 -2 221 -2 228 -1 9 -52
12 -220 12 -121 0 -221 -3 -223 -7z"/>
<path d="M21508 8085 c-8 -8 1 -117 14 -155 25 -77 65 -109 167 -135 76 -20
257 -27 271 -11 5 7 9 78 8 159 l0 147 -227 0 c-125 0 -230 -2 -233 -5z"/>
<path d="M22460 8082 c-49 -6 -126 -35 -165 -62 -49 -34 -91 -111 -103 -192
-9 -58 -4 -76 33 -114 5 -6 30 -35 55 -64 25 -30 61 -72 80 -94 19 -22 47 -54
61 -71 15 -16 86 -100 159 -185 73 -85 149 -173 169 -196 20 -22 56 -64 80
-92 39 -47 47 -52 85 -52 53 0 166 24 203 44 71 36 114 109 126 213 5 40 2 45
-100 170 -57 70 -114 139 -126 153 -12 14 -51 62 -87 105 -35 44 -69 85 -75
91 -5 6 -26 30 -45 54 -19 24 -51 63 -70 86 -19 23 -42 50 -50 60 -32 41 -106
130 -117 142 -11 12 -45 13 -113 4z"/>
<path d="M22740 8085 c0 -2 41 -50 90 -105 50 -56 105 -118 123 -137 18 -20
43 -48 57 -63 49 -52 168 -185 195 -217 15 -18 30 -33 34 -33 3 0 6 125 6 278
l0 277 -253 3 c-138 1 -252 0 -252 -3z"/>
<path d="M6199 7520 c-6 -27 -2 -553 4 -557 10 -6 467 -6 473 0 4 4 -143 182
-196 237 -8 9 -35 40 -60 70 -50 60 -163 192 -197 230 -13 14 -23 23 -24 20z"/>
<path d="M22189 7498 c-3 -90 1 -531 5 -536 7 -6 466 -5 473 2 3 3 -21 36 -53
73 -32 37 -69 79 -81 93 -220 257 -336 390 -339 390 -2 0 -4 -10 -5 -22z"/>
<path d="M13590 7224 l0 -263 38 -3 c55 -4 181 10 232 27 99 33 158 99 178
200 5 28 9 106 8 175 l-1 125 -227 1 -228 1 0 -263z"/>
<path d="M12559 7283 c-169 -35 -244 -112 -248 -254 l-2 -69 38 -1 c48 0 359
0 396 0 l27 1 0 168 0 168 -74 -1 c-41 0 -103 -6 -137 -12z"/>
<path d="M15177 7294 c-1 -1 -22 -4 -47 -7 -131 -17 -232 -83 -260 -170 -14
-46 -20 -146 -8 -153 6 -4 332 -8 436 -5 l22 1 -2 167 -3 168 -68 0 c-38 0
-69 0 -70 -1z"/>
<path d="M20512 7288 c-182 -24 -277 -113 -281 -265 l-2 -63 33 -1 c46 0 301
0 373 0 l60 1 -1 153 c-1 83 -2 159 -3 167 -1 18 -75 21 -179 8z"/>
<path d="M21765 7284 c-119 -20 -203 -71 -238 -147 -18 -38 -29 -164 -15 -173
7 -5 262 -7 424 -5 l32 1 1 165 c1 91 -2 166 -7 166 -39 6 -140 3 -197 -7z"/>
</g>
</svg>
